<svg width="1600" height="980" viewBox="0 0 1600 980" fill="none" xmlns="http://www.w3.org/2000/svg">
  <defs>
    <linearGradient id="bg" x1="0" y1="0" x2="1600" y2="980" gradientUnits="userSpaceOnUse">
      <stop stop-color="#0B1220"/>
      <stop offset="1" stop-color="#111827"/>
    </linearGradient>
    <filter id="cardShadow" x="0" y="0" width="2000" height="1300" filterUnits="userSpaceOnUse" color-interpolation-filters="sRGB">
      <feDropShadow dx="0" dy="10" stdDeviation="16" flood-color="#000000" flood-opacity="0.45"/>
    </filter>
  </defs>

  <rect width="1600" height="980" fill="url(#bg)"/>
  <rect x="40" y="30" width="1520" height="62" rx="16" fill="#0F172A" stroke="#1F2937" filter="url(#cardShadow)"/>
  <text x="74" y="68" fill="#E2E8F0" font-family="SF Pro Display, -apple-system, sans-serif" font-size="24" font-weight="650">Settings</text>

  <rect x="40" y="106" width="280" height="844" rx="20" fill="#0F172A" stroke="#1F2937" filter="url(#cardShadow)"/>
  <text x="70" y="150" fill="#64748B" font-family="SF Pro Text, -apple-system, sans-serif" font-size="12" font-weight="600" letter-spacing="1">SECTIONS</text>
  <rect x="64" y="168" width="232" height="40" rx="12" fill="#111827"/><text x="92" y="193" fill="#94A3B8" font-family="SF Pro Text, -apple-system, sans-serif" font-size="15">Appearance</text>
  <rect x="64" y="216" width="232" height="40" rx="12" fill="#111827"/><text x="92" y="241" fill="#94A3B8" font-family="SF Pro Text, -apple-system, sans-serif" font-size="15">Church</text>
  <rect x="64" y="264" width="232" height="40" rx="12" fill="#111827"/><text x="92" y="289" fill="#94A3B8" font-family="SF Pro Text, -apple-system, sans-serif" font-size="15">Pastoral</text>
  <rect x="64" y="312" width="232" height="40" rx="12" fill="#172554"/><text x="92" y="337" fill="#93C5FD" font-family="SF Pro Text, -apple-system, sans-serif" font-size="15" font-weight="600">System</text>

  <rect x="336" y="106" width="1224" height="844" rx="20" fill="#0F172A" stroke="#1F2937" filter="url(#cardShadow)"/>
  <text x="376" y="152" fill="#F8FAFC" font-family="SF Pro Display, -apple-system, sans-serif" font-size="30" font-weight="700">System</text>
  <text x="376" y="176" fill="#94A3B8" font-family="SF Pro Text, -apple-system, sans-serif" font-size="15">Runtime and database controls for desktop deployments</text>

  <rect x="376" y="194" width="1144" height="186" rx="14" fill="#111827" stroke="#334155"/>
  <text x="402" y="228" fill="#F1F5F9" font-family="SF Pro Display, -apple-system, sans-serif" font-size="20" font-weight="600">General</text>
  <text x="402" y="262" fill="#CBD5E1" font-family="SF Pro Text, -apple-system, sans-serif" font-size="14">Default rows per page</text>
  <rect x="402" y="272" width="300" height="40" rx="10" fill="#0B1220" stroke="#334155"/><text x="420" y="297" fill="#E2E8F0" font-family="SF Pro Text, -apple-system, sans-serif" font-size="15">10</text>
  <rect x="402" y="322" width="530" height="34" rx="9" fill="#0B1220" stroke="#334155"/><circle cx="422" cy="339" r="7" fill="#3B82F6"/><text x="442" y="344" fill="#CBD5E1" font-family="SF Pro Text, -apple-system, sans-serif" font-size="14">Enable event tasks</text>
  <rect x="946" y="322" width="530" height="34" rx="9" fill="#0B1220" stroke="#334155"/><circle cx="966" cy="339" r="7" fill="#475569"/><text x="986" y="344" fill="#CBD5E1" font-family="SF Pro Text, -apple-system, sans-serif" font-size="14">Private mode</text>

  <rect x="376" y="394" width="1144" height="164" rx="14" fill="#111827" stroke="#334155"/>
  <text x="402" y="428" fill="#F1F5F9" font-family="SF Pro Display, -apple-system, sans-serif" font-size="20" font-weight="600">Database</text>
  <rect x="402" y="442" width="138" height="34" rx="10" fill="#1E293B"/><text x="434" y="464" fill="#93C5FD" font-family="SF Pro Text, -apple-system, sans-serif" font-size="13" font-weight="600">Export DB</text>
  <rect x="550" y="442" width="138" height="34" rx="10" fill="#1E293B"/><text x="580" y="464" fill="#93C5FD" font-family="SF Pro Text, -apple-system, sans-serif" font-size="13" font-weight="600">Export fresh</text>
  <text x="402" y="500" fill="#CBD5E1" font-family="SF Pro Text, -apple-system, sans-serif" font-size="14">Import archive</text>
  <rect x="402" y="508" width="820" height="38" rx="10" fill="#0B1220" stroke="#334155"/><text x="420" y="532" fill="#64748B" font-family="SF Pro Text, -apple-system, sans-serif" font-size="14">No file selected</text>
  <rect x="1234" y="508" width="128" height="38" rx="10" fill="#2563EB"/><text x="1278" y="532" fill="#FFFFFF" font-family="SF Pro Text, -apple-system, sans-serif" font-size="14" font-weight="600">Import</text>

  <rect x="376" y="572" width="1144" height="232" rx="14" fill="#111827" stroke="#334155"/>
  <text x="402" y="606" fill="#F1F5F9" font-family="SF Pro Display, -apple-system, sans-serif" font-size="20" font-weight="600">Desktop Runtime</text>
  <text x="402" y="628" fill="#94A3B8" font-family="SF Pro Text, -apple-system, sans-serif" font-size="14">Switch between production and testing database profiles</text>
  <text x="402" y="662" fill="#CBD5E1" font-family="SF Pro Text, -apple-system, sans-serif" font-size="14">Database mode</text>
  <rect x="402" y="670" width="340" height="40" rx="10" fill="#0B1220" stroke="#334155"/><text x="420" y="695" fill="#E2E8F0" font-family="SF Pro Text, -apple-system, sans-serif" font-size="15">PROD (current)</text>
  <rect x="402" y="720" width="690" height="34" rx="9" fill="#0B1220" stroke="#334155"/><circle cx="422" cy="737" r="7" fill="#3B82F6"/><text x="442" y="742" fill="#CBD5E1" font-family="SF Pro Text, -apple-system, sans-serif" font-size="14">Clone current DB into dev dataset on first switch</text>
  <rect x="402" y="764" width="266" height="36" rx="10" fill="#1E293B"/><text x="452" y="787" fill="#DBEAFE" font-family="SF Pro Text, -apple-system, sans-serif" font-size="13" font-weight="600">Apply DB mode (restart required)</text>
  <rect x="1254" y="764" width="266" height="36" rx="10" fill="#3F1D1D" stroke="#7F1D1D"/><text x="1320" y="787" fill="#FCA5A5" font-family="SF Pro Text, -apple-system, sans-serif" font-size="13" font-weight="600">Stop application</text>
</svg>
